<?xml version="1.0" encoding="UTF-8" standalone="no"?>
<!DOCTYPE svg PUBLIC "-//W3C//DTD SVG 1.1//EN" "http://www.w3.org/Graphics/SVG/1.1/DTD/svg11.dtd">
<svg width="100%" height="100%" viewBox="0 0 24 24" version="1.1" xmlns="http://www.w3.org/2000/svg" xmlns:xlink="http://www.w3.org/1999/xlink" xml:space="preserve" xmlns:serif="http://www.serif.com/" style="fill-rule:evenodd;clip-rule:evenodd;stroke-linejoin:round;stroke-miterlimit:1.41421;">
    <g transform="matrix(-1.07182,1.3126e-16,-1.3126e-16,-1.07182,25.9512,23.2846)">
        <path d="M15.464,0.128L17.149,0.675L14.701,8.21L21.11,3.553L22.151,4.986L15.742,9.643L23.664,9.643L23.664,11.414L15.742,11.414L22.151,16.071L21.11,17.504L14.701,12.847L17.149,20.382L15.464,20.929L13.016,13.395L10.568,20.929L8.884,20.382L11.332,12.847L4.923,17.504L3.881,16.071L10.29,11.414L2.368,11.414L2.368,9.643L10.29,9.643L3.881,4.986L4.923,3.553L11.332,8.21L8.884,0.675L10.568,0.128L13.016,7.662L15.464,0.128Z" style="fill:rgb(191,191,191);"/>
    </g>
</svg>
