<?xml version="1.0" encoding="UTF-8" standalone="no"?><!DOCTYPE svg PUBLIC "-//W3C//DTD SVG 1.1//EN" "http://www.w3.org/Graphics/SVG/1.1/DTD/svg11.dtd"><svg width="100%" height="100%" viewBox="0 0 24 24" version="1.1" xmlns="http://www.w3.org/2000/svg" xmlns:xlink="http://www.w3.org/1999/xlink" xml:space="preserve" xmlns:serif="http://www.serif.com/" style="fill-rule:evenodd;clip-rule:evenodd;stroke-linejoin:round;stroke-miterlimit:1.41421;"><path d="M9.376,23.147l-1.806,-0.586l2.624,-8.076l-6.869,4.991l-1.116,-1.536l6.869,-4.991l-8.491,0l0,-1.898l8.491,0l-6.869,-4.991l1.116,-1.536l6.869,4.991l-2.624,-8.076l1.806,-0.586l2.624,8.075l2.624,-8.075l1.806,0.586l-2.624,8.076l6.869,-4.991l1.116,1.536l-6.869,4.991l8.491,0l0,1.898l-8.491,0l6.869,4.991l-1.116,1.536l-6.869,-4.991l2.624,8.076l-1.806,0.586l-2.624,-8.075l-2.624,8.075Z" style="fill:#bfbfbf;"/></svg>