<?xml version="1.0" encoding="UTF-8" standalone="no"?>
<!DOCTYPE svg PUBLIC "-//W3C//DTD SVG 1.1//EN" "http://www.w3.org/Graphics/SVG/1.1/DTD/svg11.dtd">
<svg width="100%" height="100%" viewBox="0 0 24 24" version="1.1" xmlns="http://www.w3.org/2000/svg" xmlns:xlink="http://www.w3.org/1999/xlink" xml:space="preserve" xmlns:serif="http://www.serif.com/" style="fill-rule:evenodd;clip-rule:evenodd;stroke-linejoin:round;stroke-miterlimit:1.41421;">
    <g transform="matrix(0.75,0,0,0.75,0,0)">
        <path d="M16,0C7.163,0 0,7.163 0,16C0,24.837 7.163,32 16,32C24.837,32 32,24.837 32,16C32,7.163 24.837,0 16,0ZM16,8C20.418,8 24,11.582 24,16C24,20.418 20.418,24 16,24C11.582,24 8,20.418 8,16C8,11.582 11.582,8 16,8ZM25.546,25.546C22.996,28.096 19.606,29.5 16,29.5C12.394,29.5 9.004,28.096 6.454,25.546C3.904,22.996 2.5,19.606 2.5,16C2.5,12.394 3.904,9.004 6.454,6.454L8.575,8.575C4.481,12.669 4.481,19.33 8.575,23.424C10.558,25.407 13.195,26.499 16,26.499C18.805,26.499 21.441,25.407 23.425,23.424C27.519,19.33 27.519,12.669 23.425,8.575L25.546,6.454C28.096,9.004 29.5,12.394 29.5,16C29.5,19.606 28.096,22.996 25.546,25.546Z" style="fill-rule:nonzero;"/>
    </g>
</svg>
