<?xml version="1.0" encoding="UTF-8" standalone="no"?>
<!DOCTYPE svg PUBLIC "-//W3C//DTD SVG 1.1//EN" "http://www.w3.org/Graphics/SVG/1.1/DTD/svg11.dtd">
<svg width="100%" height="100%" viewBox="0 0 25 25" version="1.1" xmlns="http://www.w3.org/2000/svg" xmlns:xlink="http://www.w3.org/1999/xlink" xml:space="preserve" xmlns:serif="http://www.serif.com/" style="fill-rule:evenodd;clip-rule:evenodd;stroke-linejoin:round;stroke-miterlimit:1.41421;">
    <g transform="matrix(1,0,0,1,-3.99746,-4.3211)">
        <g transform="matrix(1.09847,-0.00035366,0.000355712,1.10484,-1.58135,-1.7647)">
            <path d="M21.045,8.578C19.544,7.6 17.791,7.08 16,7.08C14.209,7.08 12.456,7.6 10.955,8.578L12.216,10.514C13.342,9.781 14.657,9.391 16,9.391C17.343,9.391 18.658,9.781 19.784,10.514L21.045,8.578Z"/>
        </g>
        <g>
            <path d="M16,8.415C20.365,8.415 23.909,11.959 23.909,16.324C23.909,20.689 20.365,24.233 16,24.233C11.635,24.233 8.091,20.689 8.091,16.324C8.091,11.959 11.635,8.415 16,8.415ZM16,10.392C19.274,10.392 21.932,13.05 21.932,16.324C21.932,19.597 19.274,22.255 16,22.255C12.726,22.255 10.068,19.597 10.068,16.324C10.068,13.05 12.726,10.392 16,10.392Z"/>
            <path d="M16,4.321C22.624,4.321 28.003,9.699 28.003,16.324C28.003,22.948 22.624,28.326 16,28.326C9.376,28.326 3.997,22.948 3.997,16.324C3.997,9.699 9.376,4.321 16,4.321ZM16,6.197C21.589,6.197 26.127,10.735 26.127,16.324C26.127,21.913 21.589,26.45 16,26.45C10.411,26.45 5.873,21.913 5.873,16.324C5.873,10.735 10.411,6.197 16,6.197Z"/>
        </g>
    </g>
</svg>
